<svg xmlns="http://www.w3.org/2000/svg" viewBox="0 0 262 369.46"><defs><style>.cls-1{fill:#232323;stroke:#232323;}.cls-1,.cls-2{stroke-miterlimit:10;}.cls-2{stroke:#505050;stroke-width:2px;}</style></defs><g id="Ebene_2" data-name="Ebene 2"><g id="V2"><path class="cls-1" d="M221.41,47.6l-74-42.71a33,33,0,0,0-32.86,0l-74,42.71A32.94,32.94,0,0,0,24.16,76.06V293.4a32.94,32.94,0,0,0,16.43,28.46l74,42.71a32.94,32.94,0,0,0,32.86,0l74-42.71a32.94,32.94,0,0,0,16.43-28.46V76.06A32.94,32.94,0,0,0,221.41,47.6Z"/><path class="cls-2" d="M241,90.66l-90-52a40.12,40.12,0,0,0-40,0l-90,52A40.09,40.09,0,0,0,1,125.29V229.22a40.11,40.11,0,0,0,20,34.64l90,52a40.12,40.12,0,0,0,40,0l90-52a40.09,40.09,0,0,0,20-34.64V125.29A40.09,40.09,0,0,0,241,90.66Z"/></g></g></svg>