<svg xmlns="http://www.w3.org/2000/svg" viewBox="0 0 163.08 44.62"><defs><style>.cls-1{stroke:#505050;stroke-miterlimit:10;stroke-width:2px;}</style></defs><g id="Ebene_2" data-name="Ebene 2"><g id="stats"><path class="cls-1" d="M75.17,34.69l5.46-9.46a4.2,4.2,0,0,0,0-4.2l-5.46-9.45a4.2,4.2,0,0,0-3.64-2.1H10.66A4.2,4.2,0,0,0,7,11.58L1.56,21A4.26,4.26,0,0,0,1,23.13a4.21,4.21,0,0,0,.56,2.1L7,34.69a4.22,4.22,0,0,0,3.64,2.1H71.53A4.22,4.22,0,0,0,75.17,34.69Z"/><path class="cls-1" d="M156.06,34.69l5.46-9.46a4.2,4.2,0,0,0,0-4.2l-5.46-9.45a4.2,4.2,0,0,0-3.64-2.1H91.55a4.2,4.2,0,0,0-3.64,2.1L82.45,21a4.26,4.26,0,0,0-.56,2.1,4.21,4.21,0,0,0,.56,2.1l5.46,9.46a4.22,4.22,0,0,0,3.64,2.1h60.87A4.22,4.22,0,0,0,156.06,34.69Z"/><path class="cls-1" d="M63.57,34.26l14.7,8.49a6.58,6.58,0,0,0,6.54,0l14.7-8.49a6.57,6.57,0,0,0,3.27-5.66V16a6.56,6.56,0,0,0-3.27-5.66L84.81,1.87a6.58,6.58,0,0,0-6.54,0l-14.7,8.49A6.56,6.56,0,0,0,60.3,16V28.6A6.57,6.57,0,0,0,63.57,34.26Z"/></g></g></svg>