<?xml version="1.0" encoding="utf-8"?>
<!-- Generator: Adobe Illustrator 24.1.2, SVG Export Plug-In . SVG Version: 6.00 Build 0)  -->
<svg version="1.1" id="Ebene_1" xmlns="http://www.w3.org/2000/svg" xmlns:xlink="http://www.w3.org/1999/xlink" x="0px" y="0px"
	 viewBox="0 0 670.79 84.88" style="enable-background:new 0 0 670.79 84.88;" xml:space="preserve">
<style type="text/css">
	.st0{display:none;}
	.st1{display:inline;}
	.st2{fill:#FFFFFF;}
	.st3{fill:#F6C30D;}
	.st4{fill:none;stroke:#2E8EBE;stroke-width:2.8346;stroke-linecap:round;stroke-miterlimit:10;}
</style>
<g id="Ebene_2_1_" class="st0">
	<rect x="-90.29" y="-103.52" class="st1" width="862.77" height="283.46"/>
</g>
<g id="Ebene_1_1_">
	<path class="st2" d="M2.61,19.08h10.17l10.11,33.21h0.13L34.2,19.08H44l11.24,33.21h0.13l10.3-33.21h9.8L60.4,61.88H50.21
		L39.03,29.03H38.9L27.66,61.88H17.49L2.61,19.08z"/>
	<path class="st2" d="M103.21,18.78h-8.47L74.22,62.15h9.63l4.47-9.33h21.43l4.34,9.33h9.64l-20.44-43.21L103.21,18.78z
		 M105.59,44.02H92.37l6.64-13.94L105.59,44.02z"/>
	<polygon class="st2" points="174.15,18.78 163.41,18.78 153.21,32.27 142.93,18.78 132.2,18.78 147.74,39.64 130.85,62.16
		141.59,62.16 153.21,46.88 164.76,62.16 175.49,62.16 158.61,39.64 	"/>
	<path class="st2" d="M213.64,18.78h-26.41v43.37h8.68V46.12h17.73c3.81,0,7.09-1.38,9.75-4.11s4.01-5.95,4.01-9.59
		c0-3.72-1.35-6.96-4.01-9.62C220.73,20.13,217.45,18.78,213.64,18.78z M218.72,32.42c0,1.36-0.5,2.55-1.48,3.54
		c-1,1-2.18,1.48-3.6,1.48h-17.73v-9.97h17.73c1.4,0,2.62,0.5,3.6,1.48C218.24,29.94,218.72,31.08,218.72,32.42z"/>
	<polygon class="st2" points="248.29,18.78 239.61,18.78 239.61,62.16 274.87,62.16 274.87,53.47 248.29,53.47 	"/>
	<path class="st2" d="M380.53,40.32c1.69-2.34,2.54-4.99,2.54-7.9c0-3.72-1.35-6.96-4.01-9.62c-2.66-2.66-5.94-4.01-9.75-4.01H342.9
		v43.37h8.68V46.12h12.78l9.46,16.04h10.11l-9.85-16.94C376.73,44.21,378.9,42.56,380.53,40.32z M374.39,32.42
		c0,1.36-0.5,2.55-1.48,3.54c-1,1-2.18,1.48-3.6,1.48h-17.73v-9.97h17.73c1.4,0,2.61,0.5,3.6,1.48
		C373.9,29.95,374.39,31.08,374.39,32.42z"/>
	<polygon class="st2" points="404,43.56 419.01,43.56 419.01,34.69 404,34.69 404,27.46 429.94,27.46 429.94,18.78 395.32,18.78
		395.32,62.16 430.58,62.16 430.58,53.47 404,53.47 	"/>
	<path class="st2" d="M471.82,45.22c2.67-1.01,4.84-2.66,6.46-4.9c1.69-2.34,2.54-4.99,2.54-7.9c0-3.72-1.35-6.96-4.01-9.62
		c-2.66-2.66-5.94-4.01-9.75-4.01h-26.41v43.37h8.68V46.12h12.78l9.46,16.04h10.11L471.82,45.22z M472.15,32.42
		c0,1.36-0.5,2.55-1.48,3.54c-1,1-2.18,1.48-3.6,1.48h-17.73v-9.97h17.73c1.4,0,2.61,0.5,3.6,1.48
		C471.65,29.93,472.15,31.1,472.15,32.42z"/>
	<path class="st3" d="M305.31,18.08c-6.35,0-11.77,2.17-16.11,6.44c-4.34,4.27-6.54,9.62-6.54,15.89c0,6.1,2.25,11.43,6.7,15.85
		c4.44,4.42,9.81,6.66,15.95,6.66s11.51-2.24,15.95-6.66c4.44-4.42,6.7-9.8,6.7-15.98c0-5.97-2.29-11.22-6.79-15.6
		C316.66,20.3,311.32,18.08,305.31,18.08z M319.28,40.28c0,3.78-1.38,7.06-4.1,9.77c-2.72,2.7-6.04,4.07-9.86,4.07
		c-3.82,0-7.14-1.37-9.86-4.07c-2.72-2.7-4.1-5.99-4.1-9.77c0-3.73,1.38-6.93,4.1-9.5c2.72-2.58,6.04-3.88,9.87-3.88
		c3.82,0,7.14,1.33,9.87,3.95C317.9,33.45,319.28,36.63,319.28,40.28z"/>
	<path class="st3" d="M316.17,48.96c-0.31,0.37-0.64,0.73-0.99,1.09c-1.79,1.77-3.84,2.96-6.12,3.58l19.98,29.53l7.04-4.77
		L316.17,48.96z"/>
	<polygon class="st2" points="530.37,60.94 530.37,57.79 535.3,57.79 535.3,56.39 530.37,56.39 530.37,53.59 535.86,53.59
		535.86,52.19 528.8,52.19 528.8,62.35 536,62.35 536,60.94 	"/>
	<g>
		<polygon class="st3" points="542.11,29.35 544.29,29.35 546.3,21.21 548.31,29.35 550.49,29.35 553.43,19.19 551.91,19.19
			549.43,27.84 547.27,19.3 547.24,19.19 545.37,19.19 543.16,27.84 540.71,19.29 540.68,19.19 539.15,19.19 542.08,29.25 		"/>
		<path class="st3" d="M547.05,35.69h-1.93l-3.83,10.16h1.52l0.84-2.21h4.83l0.84,2.21h1.52l-3.75-10.07L547.05,35.69z M548.01,42.3
			h-3.88l1.95-5.12L548.01,42.3z"/>
		<polygon class="st3" points="550.65,52.19 548.85,52.19 546.03,56.08 543.34,52.25 543.29,52.19 541.5,52.19 545.02,56.98
			541.37,62.35 543.14,62.35 546.03,57.98 549,62.35 550.78,62.35 547.04,56.98 		"/>
	</g>
	<g>
		<path class="st2" d="M564.21,18.84c-3.17,0-5.48,2.28-5.48,5.42c0,3.2,2.25,5.44,5.48,5.44s5.48-2.24,5.48-5.44
			C569.69,21.12,567.38,18.84,564.21,18.84z M564.21,28.29c-2.27,0-3.92-1.7-3.92-4.03s1.65-4.02,3.92-4.02
			c2.3,0,3.91,1.65,3.91,4.02C568.12,26.6,566.47,28.29,564.21,28.29z"/>
		<path class="st2" d="M582.57,29.35h2l-3.59-3.94c1.86-0.14,3.15-1.39,3.15-3.07c0-1.91-1.45-3.14-3.7-3.14h-4.44v10.16h1.56v-3.88
			h1.62l3.38,3.82L582.57,29.35z M577.54,20.59h2.88c1.32,0,2.14,0.67,2.14,1.74c0,1.08-0.82,1.75-2.14,1.75h-2.88V20.59z"/>
		<polygon class="st2" points="592,19.19 590.44,19.19 590.44,29.35 596.97,29.35 596.97,27.94 592,27.94 		"/>
		<path class="st2" d="M606.29,19.19h-3.31v10.16h3.31c3.49,0,5.83-2.04,5.83-5.09C612.12,21.23,609.78,19.19,606.29,19.19z
			 M606.29,27.94h-1.75v-7.35h1.75c2.6,0,4.29,1.44,4.29,3.67C610.58,26.5,608.9,27.94,606.29,27.94z"/>
		<polygon class="st2" points="631.71,19.19 630.2,19.19 627.72,27.84 625.56,19.3 625.53,19.19 623.66,19.19 621.45,27.84
			619,19.29 618.97,19.19 617.44,19.19 620.37,29.25 620.4,29.35 622.57,29.35 624.59,21.21 626.6,29.35 628.78,29.35 		"/>
		<rect x="637.92" y="19.19" class="st2" width="1.56" height="10.16"/>
		<path class="st2" d="M649.69,19.19h-3.31v10.16h3.31c3.49,0,5.83-2.04,5.83-5.09C655.52,21.23,653.18,19.19,649.69,19.19z
			 M649.69,27.94h-1.75v-7.35h1.75c2.6,0,4.28,1.44,4.28,3.67C653.98,26.5,652.3,27.94,649.69,27.94z"/>
		<polygon class="st2" points="663.4,27.94 663.4,24.79 668.33,24.79 668.33,23.39 663.4,23.39 663.4,20.59 668.89,20.59
			668.89,19.19 661.83,19.19 661.83,29.35 669.03,29.35 669.03,27.94 		"/>
		<path class="st2" d="M560.55,46.2c2.46,0,3.98-1.21,3.98-3.15c0-2.42-2.28-2.79-3.94-3.07c-1.6-0.25-2.65-0.49-2.65-1.62
			c0-1.02,0.85-1.61,2.32-1.61c1.61,0,2.53,0.76,2.53,2.08v0.14h1.52v-0.14c-0.01-2.15-1.57-3.49-4.05-3.49
			c-2.39,0-3.88,1.18-3.88,3.08c0,2.23,1.99,2.73,3.86,3.03c1.47,0.24,2.74,0.44,2.74,1.68c0,1.04-0.9,1.67-2.41,1.67
			c-1.77,0-2.79-0.84-2.8-2.3v-0.14h-1.54v0.14C556.22,44.78,557.88,46.2,560.55,46.2z"/>
		<path class="st2" d="M574.74,39.98c-1.6-0.25-2.65-0.49-2.65-1.62c0-1.02,0.85-1.61,2.32-1.61c1.61,0,2.53,0.76,2.53,2.08v0.14
			h1.52v-0.14c-0.01-2.15-1.57-3.49-4.05-3.49c-2.39,0-3.88,1.18-3.88,3.08c0,2.23,1.99,2.73,3.86,3.03
			c1.47,0.24,2.74,0.44,2.74,1.68c0,1.04-0.9,1.67-2.41,1.67c-1.77,0-2.79-0.84-2.8-2.3v-0.14h-1.54v0.14c0,2.28,1.66,3.7,4.33,3.7
			c2.46,0,3.98-1.21,3.98-3.15C578.68,40.62,576.4,40.25,574.74,39.98z"/>
		<polygon class="st2" points="592.26,44.44 586.63,44.44 586.63,41.29 591.56,41.29 591.56,39.89 586.63,39.89 586.63,37.09
			592.12,37.09 592.12,35.69 585.06,35.69 585.06,45.85 592.26,45.85 		"/>
		<polygon class="st2" points="600.64,45.85 602.2,45.85 602.2,37.09 605.48,37.09 605.48,35.69 597.38,35.69 597.38,37.09
			600.64,37.09 		"/>
		<path class="st2" d="M560.85,52.19h-4.08v10.16h1.53v-3.82h2.55c2.2,0,3.69-1.27,3.69-3.17c0.01-0.87-0.28-1.61-0.82-2.16
			C563.06,52.54,562.07,52.19,560.85,52.19z M562.99,55.36c0,1.08-0.82,1.75-2.14,1.75h-2.55V53.6h2.55
			C562.19,53.59,562.99,54.25,562.99,55.36z"/>
		<polygon class="st2" points="572.26,52.19 570.7,52.19 570.7,62.35 577.23,62.35 577.23,60.94 572.26,60.94 		"/>
		<path class="st2" d="M587.52,51.84c-3.17,0-5.48,2.28-5.48,5.42c0,3.2,2.25,5.44,5.48,5.44s5.48-2.24,5.48-5.44
			C593,54.12,590.69,51.84,587.52,51.84z M591.43,57.26c0,2.34-1.64,4.03-3.91,4.03c-2.27,0-3.92-1.7-3.92-4.03s1.65-4.02,3.92-4.02
			C589.82,53.24,591.43,54.89,591.43,57.26z"/>
		<path class="st2" d="M607.43,55.33c0-1.91-1.45-3.14-3.7-3.14h-4.44v10.16h1.56v-3.87h1.62l3.38,3.82l0.04,0.05h2l-3.59-3.95
			C606.14,58.26,607.43,57.01,607.43,55.33z M605.87,55.33c0,1.08-0.82,1.75-2.14,1.75h-2.88v-3.49h2.88
			C605.05,53.59,605.87,54.26,605.87,55.33z"/>
		<polygon class="st2" points="615.32,57.79 620.25,57.79 620.25,56.39 615.32,56.39 615.32,53.59 620.81,53.59 620.81,52.19
			613.75,52.19 613.75,62.35 620.95,62.35 620.95,60.94 615.32,60.94 		"/>
		<path class="st2" d="M635.37,55.33c0-1.91-1.45-3.14-3.7-3.14h-4.44v10.16h1.56v-3.87h1.62l3.38,3.82l0.04,0.05h2l-3.59-3.95
			C634.09,58.26,635.37,57.01,635.37,55.33z M633.82,55.33c0,1.08-0.82,1.75-2.14,1.75h-2.88v-3.49h2.88
			C633,53.59,633.82,54.26,633.82,55.33z"/>
	</g>
	<path class="st2" d="M293.68,40.22h2.83c0-4.85,3.95-8.8,8.8-8.8v-2.83C298.9,28.59,293.68,33.81,293.68,40.22z"/>
	<line class="st4" x1="505.62" y1="72.92" x2="505.62" y2="3.5"/>
</g>
</svg>
