<?xml version="1.0" encoding="utf-8"?>
<svg width="56" height="56" viewBox="0 0 56 56" fill="none" xmlns="http://www.w3.org/2000/svg">
<path d="M28.1595 47.8303C19.5792 39.2957 10.9533 30.7154 2.23608 22.0438C3.87912 20.4008 5.52215 18.8491 7.16518 17.2517C9.90357 14.5589 12.5963 11.8205 15.3347 9.08214C15.6085 8.80831 15.928 8.67139 16.3388 8.67139C24.2801 8.67139 32.1758 8.67139 40.1171 8.67139C40.3909 8.67139 40.7561 8.76267 40.9386 8.94523C45.2744 13.281 49.6102 17.6168 53.9459 21.9526C53.9916 21.9982 53.9916 22.0438 54.0829 22.0895C45.3657 30.7154 36.7397 39.2957 28.1595 47.8303ZM49.2907 22.0895C49.245 22.0438 49.245 21.9982 49.1994 21.9526C46.0046 18.7578 42.8098 15.5174 39.5694 12.3226C39.3412 12.0944 38.9761 11.9575 38.6566 11.9575C31.7194 11.9575 24.7365 11.9575 17.7992 11.9118C17.2516 11.9118 16.8865 12.0944 16.5213 12.4595C14.0568 14.924 11.5922 17.3886 9.12769 19.8531C8.39745 20.5834 7.62158 21.268 6.89134 21.9526C14.0568 29.118 21.1309 36.1465 28.1138 43.1294C35.188 36.1465 42.2165 29.118 49.2907 22.0895Z" fill="black"/>
<path d="M49.2916 22.0896C42.2174 29.1181 35.1889 36.1466 28.1604 43.1751C21.1775 36.1922 14.1033 29.1637 6.93787 21.9983C7.6681 21.3137 8.44398 20.6291 9.17422 19.8988C11.6388 17.4343 14.1033 14.9697 16.5679 12.5052C16.933 12.1401 17.2981 11.9575 17.8458 11.9575C24.783 11.9575 31.7659 11.9575 38.7032 12.0032C39.0226 12.0032 39.3877 12.1401 39.6159 12.3683C42.8564 15.5631 46.0512 18.8035 49.2459 21.9983C49.2459 21.9983 49.2459 22.0439 49.2916 22.0896ZM42.2631 21.4506C42.0349 21.4506 41.8979 21.4506 41.7154 21.4506C38.0642 21.4506 34.4587 21.4506 30.8075 21.4506C30.3511 21.4506 30.0316 21.3593 29.986 20.8573C29.9403 20.5834 29.849 20.3096 29.7121 20.0358C28.3429 17.2061 26.1066 15.6087 22.9574 15.4718C19.8083 15.3805 17.435 16.7953 15.9289 19.5794C14.0577 23.048 15.2899 27.475 18.6216 29.5745C21.9077 31.6283 26.1979 30.898 28.6168 27.8402C29.347 26.9274 29.8034 25.8777 30.1229 24.7823C32.2223 24.7823 34.3217 24.7823 36.4668 24.7823C36.4668 25.6038 36.4668 26.4253 36.4668 27.2012C37.5622 27.2012 38.6575 27.2012 39.7529 27.2012C39.7529 26.3797 39.7529 25.5582 39.7529 24.691C40.62 24.691 41.3959 24.691 42.2174 24.691C42.2631 23.5957 42.2631 22.5459 42.2631 21.4506Z" fill="white"/>
<path d="M42.2624 21.4509C42.2624 22.5919 42.2624 23.6416 42.2624 24.7369C41.4409 24.7369 40.665 24.7369 39.7979 24.7369C39.7979 25.6041 39.7979 26.38 39.7979 27.2471C38.7025 27.2471 37.6072 27.2471 36.5118 27.2471C36.5118 26.4256 36.5118 25.6497 36.5118 24.8282C34.3668 24.8282 32.2673 24.8282 30.1679 24.8282C29.8941 25.9236 29.392 26.9733 28.6618 27.8861C26.2429 30.8983 21.9527 31.6742 18.6667 29.6204C15.2893 27.521 14.1027 23.0939 15.9739 19.6253C17.48 16.8869 19.8533 15.4264 23.0024 15.5177C26.1516 15.609 28.3879 17.252 29.7571 20.0817C29.8941 20.3555 29.9853 20.6294 30.031 20.9032C30.1223 21.4052 30.3961 21.4965 30.8525 21.4965C34.5037 21.4965 38.1092 21.4965 41.7604 21.4965C41.8973 21.4509 42.0342 21.4509 42.2624 21.4509ZM18.3928 23.0939C18.3928 25.5128 20.3553 27.4753 22.7286 27.4297C25.1019 27.4297 27.0644 25.4672 27.0644 23.0939C27.0644 20.7206 25.1019 18.7125 22.7286 18.7125C20.3553 18.7581 18.3928 20.7206 18.3928 23.0939Z" fill="black"/>
<path d="M18.3926 23.0936C18.3926 20.7203 20.3551 18.7578 22.6827 18.7578C25.056 18.7578 27.0185 20.7203 27.0185 23.1392C27.0185 25.5125 25.056 27.4294 22.6827 27.475C20.3551 27.4294 18.3926 25.4669 18.3926 23.0936Z" fill="white"/>
</svg>
