<svg xmlns="http://www.w3.org/2000/svg" viewBox="0 0 1079.51 371.99"><defs><style>.cls-1{fill:#232323;}</style></defs><g id="Ebene_2" data-name="Ebene 2"><g id="V2"><path class="cls-1" d="M664.56,343.38l74.35-128.77a57.37,57.37,0,0,0,0-57.22L664.56,28.61A57.37,57.37,0,0,0,615,0H466.31a57.38,57.38,0,0,0-49.55,28.61L342.41,157.39a57.39,57.39,0,0,0,0,57.22l74.35,128.77A57.37,57.37,0,0,0,466.31,372H615A57.37,57.37,0,0,0,664.56,343.38Z"/><path class="cls-1" d="M920.45,262.46l36.12-62.56a27.88,27.88,0,0,0,0-27.8l-36.12-62.57a27.88,27.88,0,0,0-24.07-13.9H824.14a27.89,27.89,0,0,0-24.08,13.9L763.94,172.1a27.89,27.89,0,0,0,0,27.8l36.12,62.56a27.89,27.89,0,0,0,24.08,13.9h72.24A27.88,27.88,0,0,0,920.45,262.46Z"/><path class="cls-1" d="M279.45,262.46l36.12-62.56a27.88,27.88,0,0,0,0-27.8l-36.12-62.57a27.88,27.88,0,0,0-24.07-13.9H183.14a27.89,27.89,0,0,0-24.08,13.9L122.94,172.1a27.89,27.89,0,0,0,0,27.8l36.12,62.56a27.89,27.89,0,0,0,24.08,13.9h72.24A27.88,27.88,0,0,0,279.45,262.46Z"/><path class="cls-1" d="M1061.27,221l16.54-28.65a12.75,12.75,0,0,0,0-12.73L1061.27,151a12.76,12.76,0,0,0-11-6.36h-33.08a12.78,12.78,0,0,0-11,6.36L989.6,179.63a12.77,12.77,0,0,0,0,12.73L1006.14,221a12.77,12.77,0,0,0,11,6.37h33.08A12.75,12.75,0,0,0,1061.27,221Z"/><path class="cls-1" d="M73.37,221l16.54-28.65a12.75,12.75,0,0,0,0-12.73L73.37,151a12.77,12.77,0,0,0-11-6.36H29.26a12.77,12.77,0,0,0-11,6.36L1.7,179.63a12.77,12.77,0,0,0,0,12.73L18.24,221a12.76,12.76,0,0,0,11,6.37H62.35A12.76,12.76,0,0,0,73.37,221Z"/></g></g></svg>