<svg xmlns="http://www.w3.org/2000/svg" viewBox="0 0 42.97 42.97"><defs><style>.cls-1{fill:#fff;}</style></defs><g id="Ebene_2" data-name="Ebene 2"><g id="Lupe"><path class="cls-1" d="M37.83,11.31,15.89,8.56a5.88,5.88,0,0,0-3.31.59l-.47-4A5.87,5.87,0,0,0,6.29,0H2A2,2,0,0,0,2,3.91H6.29a2,2,0,0,1,2,1.73l3.08,26.29A5.87,5.87,0,0,0,16.21,37a3.9,3.9,0,1,0,7.23,2,3.79,3.79,0,0,0-.55-2h8.9a3.78,3.78,0,0,0-.54,2,3.91,3.91,0,1,0,7.27-2H41a2,2,0,1,0,0-3.91H17.15a2,2,0,0,1-1.95-1.73l-.27-2.34a5.58,5.58,0,0,0,1.3.16H37.11A5.86,5.86,0,0,0,43,23.44V17.12A5.86,5.86,0,0,0,37.83,11.31Zm1.23,12.13a2,2,0,0,1-2,1.95H16.23a2,2,0,0,1-1.94-1.73L13.22,14.6a2,2,0,0,1,1.94-2.18l.24,0,22,2.74a2,2,0,0,1,1.71,1.94Z"/></g></g></svg>