<svg xmlns="http://www.w3.org/2000/svg" viewBox="0 0 39.8 43.95"><defs><style>.cls-1{stroke:#ffc100;stroke-miterlimit:10;}.cls-2{fill:none;stroke:#8cc63f;stroke-linecap:round;stroke-linejoin:round;stroke-width:4px;}</style></defs><g id="Ebene_2" data-name="Ebene 2"><g id="Autor"><path class="cls-1" d="M36.32,9.05,22.89,1.3a6,6,0,0,0-6,0L3.48,9.05a6,6,0,0,0-3,5.17V29.73a6,6,0,0,0,3,5.17l13.44,7.76a6,6,0,0,0,6,0L36.32,34.9a6,6,0,0,0,3-5.17V14.22A6,6,0,0,0,36.32,9.05Z"/><polyline class="cls-2" points="10.72 24.29 15.86 29.78 30.12 15.08"/></g></g></svg>