<svg xmlns="http://www.w3.org/2000/svg" viewBox="0 0 262 327.59"><defs><style>.cls-1{fill:#232323;stroke:#232323;}.cls-1,.cls-2{stroke-miterlimit:10;}.cls-2{stroke:#505050;stroke-width:2px;}</style></defs><g id="Ebene_2" data-name="Ebene 2"><g id="V2"><path class="cls-1" d="M221.41,53.06l-74-42.71a33,33,0,0,0-32.86,0l-74,42.71A33,33,0,0,0,24.16,81.53v170A33,33,0,0,0,40.59,280l74,42.71a32.94,32.94,0,0,0,32.86,0l74-42.71a33,33,0,0,0,16.43-28.47v-170A33,33,0,0,0,221.41,53.06Z"/><path class="cls-2" d="M241,58.31l-90-52a40.12,40.12,0,0,0-40,0l-90,52A40.09,40.09,0,0,0,1,92.94V196.87a40.12,40.12,0,0,0,20,34.64l90,52a40.12,40.12,0,0,0,40,0l90-52a40.11,40.11,0,0,0,20-34.64V92.94A40.09,40.09,0,0,0,241,58.31Z"/></g></g></svg>