<svg xmlns="http://www.w3.org/2000/svg" viewBox="0 0 40.22 36.33"><defs><style>.cls-1{fill:#39b54a;}.cls-2{fill:none;stroke:#000;stroke-linecap:round;stroke-miterlimit:10;stroke-width:4px;}</style></defs><g id="Ebene_2" data-name="Ebene 2"><g id="Ebene_14" data-name="Ebene 14"><path class="cls-1" d="M32.21,33.54,39.47,21a5.61,5.61,0,0,0,0-5.59L32.21,2.79A5.61,5.61,0,0,0,27.37,0H12.85A5.6,5.6,0,0,0,8,2.79L.75,15.37A5.58,5.58,0,0,0,.75,21L8,33.54a5.6,5.6,0,0,0,4.84,2.79H27.37A5.61,5.61,0,0,0,32.21,33.54Z"/><line class="cls-2" x1="20.11" y1="28.16" x2="20.11" y2="8.16"/><line class="cls-2" x1="10.11" y1="18.16" x2="30.11" y2="18.16"/></g></g></svg>